<?xml version="1.0" encoding="iso-8859-1"?>
<svg width="2849" height="1653" viewBox="0 0 2849 1653" fill="none" xmlns="http://www.w3.org/2000/svg">
<g id="bg-1">
<path id="Mask Copy 2" opacity="0.3" fill-rule="evenodd" clip-rule="evenodd" d="M-1.5 0H2848.5V1214.3C2848.5 1214.3 2805.96 1275.57 2553 1305.63C2300.04 1335.69 2196 1254.72 1996.5 1280.18C1640.3 1325.62 1581 1376 1387.5 1419.42C1200.79 1461.32 783 1464.34 637.5 1503.27C368.849 1575.15 415.545 1570.68 274.5 1626.05C185.592 1660.95 -1.5 1651.5 -1.5 1651.5V0Z" fill="#DDEFF4"/>
<g id="Mask Copy">
<path fill-rule="evenodd" clip-rule="evenodd" d="M-1.5 0H2848.5V1214.3C2848.5 1214.3 2683.5 1310.12 2416.5 1259.21C2149.5 1208.31 2044.08 1225.31 1938 1259.21C1596 1368.52 1498.72 1388.59 1323 1416.43C1134 1446.37 950.15 1435.07 811.5 1453.86C535.895 1491.22 415.545 1570.68 274.5 1626.05C185.592 1660.95 -1.5 1651.5 -1.5 1651.5V0Z" fill="#B6DEE8"/>
<path fill-rule="evenodd" clip-rule="evenodd" d="M-1.5 0H2848.5V1214.3C2848.5 1214.3 2683.5 1310.12 2416.5 1259.21C2149.5 1208.31 2044.08 1225.31 1938 1259.21C1596 1368.52 1498.72 1388.59 1323 1416.43C1134 1446.37 950.15 1435.07 811.5 1453.86C535.895 1491.22 415.545 1570.68 274.5 1626.05C185.592 1660.95 -1.5 1651.5 -1.5 1651.5V0Z" fill="#DDEFF4"/>
</g>
<path id="Mask" fill-rule="evenodd" clip-rule="evenodd" d="M0 0H2850V1214.3C2850 1214.3 2679 1265.2 2565 1265.2C2300.66 1265.2 2316 1199.32 2004 1191.84C1835.43 1187.79 1600.5 1265.2 1401 1322.1C1174.12 1386.81 960 1364.1 811.5 1396.96C547.055 1455.48 417.045 1570.68 276 1626.05C187.092 1660.95 0 1651.5 0 1651.5V0Z" fill="url(#paint0_linear)"/>
</g>
<defs>
<linearGradient id="paint0_linear" x1="3.10549e-07" y1="670.782" x2="2849.98" y2="543.052" gradientUnits="userSpaceOnUse">
<stop stop-color="#00708B"/>
<stop offset="1" stop-color="#00708B" stop-opacity="0.57"/>
</linearGradient>
</defs>
</svg>
