<svg width="2850" height="100" xmlns="http://www.w3.org/2000/svg">

 <g>
  <title>background</title>
  <rect fill="none" id="canvas_background" height="102" width="2852" y="-1" x="-1"/>
 </g>
 <g>
  <title>Layer 1</title>
  <g id="bg-3">
   <path fill="#01718B" d="m0,60.2253c0,0 39.3898,-60.22234 675.687,-60.22457c221.313,-0.00077 481.703,86.85897 787.793,91.86257c182.99,2.9912 454.86,-67.8809 836.28,-77.608c170.21,-4.34078 580.24,20.5899 580.24,20.5899l0,1019.9948c0,0 -630.51,72.62 -905.97,64.93c-562.98,-15.71 -1042.647,-106.99 -1352.883,-117.2c-310.237,-10.206 -621.147,52.27 -621.147,52.27l0,-994.6147z" clip-rule="evenodd" fill-rule="evenodd" opacity="0.5" id="Rectangle 7 Copy 2"/>
   <path fill="#01718B" d="m0,62.8061c0,0 161.679,-73.5548 665.289,-39.9696c213.702,14.2516 483.971,62.0982 791.511,67.149c183.85,3.0194 461.57,-47.7374 844.79,-57.5563c179.94,-4.6105 578.41,30.3769 578.41,30.3769l0,999.2439c0,0 -639.57,23.74 -916.33,15.98c-565.64,-15.85 -1038.239,-111.614 -1353.178,-116.707c-314.938,-5.093 -610.492,100.727 -610.492,100.727l0,-999.2439z" clip-rule="evenodd" fill-rule="evenodd" id="Rectangle 7 Copy"/>
  </g>
 </g>
</svg>