<svg width="468" height="768" viewBox="0 0 468 768" fill="none" xmlns="http://www.w3.org/2000/svg">
<path opacity="0.5" fill-rule="evenodd" clip-rule="evenodd" d="M-469.655 203.387C-460.475 80.6776 -329.037 -42.7682 -119.655 14.3868C89.7281 71.5419 125.902 -32.2243 284.345 144.387C442.789 320.998 532.345 423.387 412.345 607.387C292.345 791.387 -42.6546 814.387 -168.655 669.387C-303.121 514.644 -478.834 326.096 -469.655 203.387Z" fill="#DDEFF4"/>
<path fill-rule="evenodd" clip-rule="evenodd" d="M-439.655 213.387C-430.475 90.6776 -299.037 -32.7682 -89.6546 24.3868C119.728 81.5419 155.902 -22.2243 314.345 154.387C472.789 330.998 520.345 417.387 400.345 601.387C280.345 785.387 -12.6546 824.387 -138.655 679.387C-273.121 524.644 -448.834 336.096 -439.655 213.387Z" fill="#DDEFF4"/>
</svg>
